<svg width="600" height="756" viewBox="0 0 600 756" fill="none" xmlns="http://www.w3.org/2000/svg">
<rect width="581" height="756" rx="25" fill="url(#paint0_linear_14_2)"/>
<path d="M492.9 756L498.016 737.992C502.941 719.985 513.459 684.075 518.384 647.85C523.5 611.993 523.5 575.925 531.15 540.225C538.8 504 554.1 467.775 546.45 432.075C538.8 396.008 508.2 360.15 500.55 323.925C492.9 288.015 508.2 252 518.384 215.775C528.759 180.023 533.541 143.85 520.966 108.15C508.2 71.9775 477.6 36.225 462.3 17.85L447 6.10352e-05L600 5.43473e-05L600 18.0076C600 36.0151 600 71.925 600 108.15C600 144.008 600 180.075 600 215.775C600 252 600 288.225 600 323.925C600 359.993 600 395.85 600 432.075C600 467.985 600 504 600 540.225C600 575.978 600 612.15 600 647.85C600 684.023 600 719.775 600 738.15L600 756L492.9 756Z" fill="#FAFAFA"/>
<defs>
<linearGradient id="paint0_linear_14_2" x1="581" y1="4.80613e-05" x2="-147.322" y2="248.465" gradientUnits="userSpaceOnUse">
<stop stop-color="#3AB6DA"/>
<stop offset="1" stop-color="#0F9CD5"/>
</linearGradient>
</defs>
</svg>
