<svg width="153" height="756" viewBox="0 0 153 756" fill="none" xmlns="http://www.w3.org/2000/svg">
<path d="M45.9 756L51.016 737.992C55.9407 719.985 66.4594 684.075 71.3841 647.85C76.5 611.992 76.5 575.925 84.15 540.225C91.8 504 107.1 467.775 99.45 432.075C91.8 396.007 61.2 360.15 53.55 323.925C45.9 288.015 61.2 252 71.3841 215.775C81.7594 180.022 86.5406 143.85 73.966 108.15C61.2 71.9775 30.6 36.225 15.3 17.85L-2.52823e-06 0L153 -6.68784e-06L153 18.0075C153 36.015 153 71.925 153 108.15C153 144.007 153 180.075 153 215.775C153 252 153 288.225 153 323.925C153 359.992 153 395.85 153 432.075C153 467.985 153 504 153 540.225C153 575.977 153 612.15 153 647.85C153 684.022 153 719.775 153 738.15L153 756L45.9 756Z" fill="url(#paint0_linear_30_3)"/>
<defs>
<linearGradient id="paint0_linear_30_3" x1="1.39947e-05" y1="378" x2="153" y2="378" gradientUnits="userSpaceOnUse">
<stop stop-color="#3AB6DA"/>
<stop offset="1" stop-color="#0F9CD5"/>
</linearGradient>
</defs>
</svg>
