<svg width="153" height="756" viewBox="0 0 153 756" fill="none" xmlns="http://www.w3.org/2000/svg">
<path d="M45.9001 756L51.016 737.992C55.9407 719.985 66.4594 684.075 71.3841 647.85C76.5001 611.993 76.5001 575.925 84.1501 540.225C91.8001 504 107.1 467.775 99.4501 432.075C91.8001 396.008 61.2001 360.15 53.5501 323.925C45.9 288.015 61.2001 252 71.3841 215.775C81.7594 180.023 86.5407 143.85 73.966 108.15C61.2 71.9775 30.6 36.225 15.3 17.85L2.79893e-05 3.43323e-05L153 2.76444e-05L153 18.0076C153 36.0151 153 71.925 153 108.15C153 144.008 153 180.075 153 215.775C153 252 153 288.225 153 323.925C153 359.993 153 395.85 153 432.075C153 467.985 153 504 153 540.225C153 575.978 153 612.15 153 647.85C153 684.022 153 719.775 153 738.15L153 756L45.9001 756Z" fill="#FAFAFA"/>
</svg>
