<?xml version="1.0" encoding="UTF-8" standalone="no"?>
<svg
   width="756"
   height="153"
   viewBox="0 0 756 153"
   fill="none"
   version="1.1"
   id="svg4"
   sodipodi:docname="vector1.svg"
   inkscape:version="1.2 (dc2aedaf03, 2022-05-15)"
   xmlns:inkscape="http://www.inkscape.org/namespaces/inkscape"
   xmlns:sodipodi="http://sodipodi.sourceforge.net/DTD/sodipodi-0.dtd"
   xmlns="http://www.w3.org/2000/svg"
   xmlns:svg="http://www.w3.org/2000/svg">
  <defs
     id="defs8" />
  <sodipodi:namedview
     id="namedview6"
     pagecolor="#ffffff"
     bordercolor="#000000"
     borderopacity="0.25"
     inkscape:showpageshadow="2"
     inkscape:pageopacity="0.0"
     inkscape:pagecheckerboard="0"
     inkscape:deskcolor="#d1d1d1"
     showgrid="false"
     inkscape:zoom="1.9211605"
     inkscape:cx="212.6319"
     inkscape:cy="6.2462247"
     inkscape:window-width="2560"
     inkscape:window-height="1377"
     inkscape:window-x="-8"
     inkscape:window-y="-8"
     inkscape:window-maximized="1"
     inkscape:current-layer="svg4" />
  <path
     d="m 0.4009,45.84159 18.008,5.1159 c 18.007,4.9247 53.917,15.4434 90.142,20.3681 35.857,5.116 71.925,5.116 107.625,12.766 36.225,7.65 72.45,22.9499 108.15,15.3 36.06701,-7.65 71.92501,-38.25 108.15001,-45.9 35.91,-7.6501 71.925,7.65 108.15,17.834 35.75199,10.3753 71.92499,15.1566 107.62499,2.5819 36.1725,-12.766 71.925,-43.366 90.3,-58.666 l 17.84994,-15.29997 10e-6,152.99997 H 738.3933 c -18.0075,0 -53.9174,0 -90.1424,0 -35.858,0 -71.925,0 -107.62499,0 -36.225,0 -72.45,0 -108.15,0 -36.068,0 -71.925,0 -108.15001,0 -35.91,0 -71.925,0 -108.15,0 -35.753,0 -71.925,0 -107.625,0 -36.173,0 -71.925,0 -90.3,0 h -17.85 z"
     fill="#fafafa"
     id="path2"
     style="stroke-width:0;stroke-dasharray:none" />
</svg>
